<svg width="40" height="41" viewBox="0 0 40 41" fill="none" xmlns="http://www.w3.org/2000/svg">
<g id="App logo 025">
<path id="Vector" fill-rule="evenodd" clip-rule="evenodd" d="M30.4687 0.5C36.25 0.5 40 4.25 40 10.0313V30.9687C40 36.75 36.25 40.5 30.4687 40.5H9.53127C3.75 40.5 0 36.75 0 30.9687V10.0313C0 4.25 3.75 0.5 9.53127 0.5H30.4687Z" fill="#2E3240"/>
<path id="Vector_2" fill-rule="evenodd" clip-rule="evenodd" d="M23.7664 9.6333C24.7742 8.5379 25.3292 7.03357 25.2415 5.5C23.8686 5.5 22.2766 6.3033 21.2689 7.48633C20.4802 8.46487 19.6331 9.99843 19.9398 11.532C21.3565 11.7072 22.8901 10.8163 23.7664 9.6333ZM25.1101 11.8679C22.9777 11.8679 21.0936 13.0509 20.0859 13.0509C19.0343 13.0509 17.5007 11.8095 15.7773 11.8679C13.5281 11.9117 11.4687 13.2408 10.3149 15.1979C9.49704 16.6 9.17571 18.2504 9.20494 19.93C9.24874 23.0994 10.4902 26.4002 11.9507 28.5033C13.0753 30.1099 14.346 31.8333 16.1424 31.8333C17.7636 31.8333 18.3624 30.7525 20.4802 30.7525C22.4519 30.7525 23.0653 31.8333 24.7742 31.8333C26.5706 31.8333 27.7536 30.1975 28.8198 28.5764C30.1635 26.6923 30.6163 24.8958 30.6747 24.8228C30.6163 24.8228 27.2278 23.4499 27.0964 19.5357C27.0964 16.1034 29.886 14.5553 30.0028 14.4823C28.4839 12.1454 26.0302 11.8679 25.1101 11.8679Z" fill="white"/>
</g>
</svg>
