<svg width="40" height="41" viewBox="0 0 40 41" fill="none" xmlns="http://www.w3.org/2000/svg">
<g id="App logo 088">
<path id="Vector" fill-rule="evenodd" clip-rule="evenodd" d="M30.4243 0.583008C36.1816 0.583008 39.9161 4.31745 39.9161 10.0747V30.9253C39.9161 36.6826 36.1816 40.417 30.4243 40.417H9.57375C3.81647 40.417 0.0820312 36.6826 0.0820312 30.9253V10.0747C0.0820312 4.31745 3.81647 0.583008 9.57375 0.583008H30.4243Z" fill="white"/>
<path id="Vector (Stroke)" fill-rule="evenodd" clip-rule="evenodd" d="M2.72855 3.22855C1.09329 4.8638 0.165975 7.21435 0.165975 10.0747V30.9253C0.165975 33.7856 1.09329 36.1362 2.72855 37.7715C4.3638 39.4067 6.71435 40.334 9.57471 40.334H30.4253C33.2856 40.334 35.6362 39.4067 37.2715 37.7715C38.9067 36.1362 39.834 33.7856 39.834 30.9253V10.0747C39.834 7.21435 38.9067 4.8638 37.2715 3.22855C35.6362 1.59329 33.2856 0.665975 30.4253 0.665975H9.57471C6.71435 0.665975 4.3638 1.59329 2.72855 3.22855ZM2.61119 3.11119C4.28247 1.4399 6.67778 0.5 9.57471 0.5H30.4253C33.3222 0.5 35.7175 1.4399 37.3888 3.11119C39.0601 4.78247 40 7.17778 40 10.0747V30.9253C40 33.8222 39.0601 36.2175 37.3888 37.8888C35.7175 39.5601 33.3222 40.5 30.4253 40.5H9.57471C6.67778 40.5 4.28247 39.5601 2.61119 37.8888C0.939903 36.2175 0 33.8222 0 30.9253V10.0747C0 7.17778 0.939903 4.78247 2.61119 3.11119Z" fill="#A4A4A4"/>
<path id="Vector_2" fill-rule="evenodd" clip-rule="evenodd" d="M16.1904 7.94809C12.9711 9.05163 10.2279 11.4651 8.70001 14.5194C8.16704 15.5732 7.78327 16.6909 7.54875 17.8514C6.96601 20.7277 7.37109 23.7963 8.69291 26.4163C9.55283 28.125 10.7894 29.6485 12.2818 30.8375C13.696 31.9624 15.3376 32.8025 17.0859 33.2653C19.2889 33.8562 21.6341 33.842 23.8514 33.3365C25.8555 32.8737 27.753 31.9126 29.2667 30.5171C30.8657 29.0434 32.0099 27.1069 32.6139 25.0208C33.2747 22.7497 33.36 20.3219 32.9481 17.9867C28.8047 17.9867 24.6545 17.9867 20.5113 17.9867C20.5113 19.7096 20.5113 21.4325 20.5113 23.1555C22.9133 23.1555 25.3154 23.1555 27.7174 23.1555C27.4403 24.8072 26.4596 26.3166 25.0738 27.2492C24.1996 27.8402 23.1976 28.2175 22.16 28.4026C21.1225 28.5806 20.0423 28.602 19.0047 28.3955C17.9458 28.1819 16.9437 27.7405 16.0625 27.1211C14.6554 26.1315 13.5823 24.6862 13.0351 23.0558C12.4737 21.397 12.4666 19.553 13.0351 17.9013C13.4331 16.7337 14.0869 15.6586 14.9539 14.7757C16.0199 13.6793 17.4057 12.8962 18.9052 12.5758C20.1844 12.3053 21.5346 12.3551 22.7854 12.7324C23.8514 13.0528 24.8321 13.6437 25.6352 14.4127C26.4453 13.601 27.2555 12.7894 28.0657 11.9778C28.4921 11.5435 28.9398 11.1234 29.352 10.6749C28.1225 9.53574 26.6728 8.6173 25.0951 8.0335C22.2524 6.97983 19.0544 6.95845 16.1904 7.94809Z" fill="white"/>
<path id="Vector_3" fill-rule="evenodd" clip-rule="evenodd" d="M16.1916 7.94824C19.0485 6.9586 22.2536 6.97998 25.0962 8.02655C26.6739 8.61035 28.1165 9.52165 29.3531 10.6679C28.9409 11.1164 28.4932 11.5365 28.0668 11.9708C27.2566 12.7824 26.4465 13.5941 25.6363 14.4057C24.8333 13.6368 23.8525 13.053 22.7865 12.7255C21.5358 12.3481 20.1855 12.2912 18.9063 12.5688C17.4139 12.8892 16.0281 13.6724 14.955 14.7688C14.088 15.6445 13.4342 16.7267 13.0362 17.8943C11.5936 16.7694 10.1509 15.6516 8.70117 14.5267C10.2291 11.4653 12.9723 9.05178 16.1916 7.94824Z" fill="#EA4335"/>
<path id="Vector_4" fill-rule="evenodd" clip-rule="evenodd" d="M7.55618 17.8444C7.7907 16.691 8.17447 15.5661 8.70748 14.5125C10.1501 15.6373 11.5928 16.7551 13.0425 17.88C12.474 19.5389 12.474 21.3828 13.0425 23.0346C11.5999 24.1595 10.1572 25.2844 8.71459 26.4021C7.37852 23.7892 6.97344 20.7207 7.55618 17.8444Z" fill="#FBBC05"/>
<path id="Vector_5" fill-rule="evenodd" clip-rule="evenodd" d="M20.511 17.9796C24.6542 17.9796 28.8045 17.9796 32.9478 17.9796C33.3597 20.3077 33.2675 22.7355 32.6136 25.0138C32.0096 27.0998 30.8654 29.0363 29.2664 30.5101C27.8664 29.4208 26.4664 28.3315 25.0664 27.2422C26.4522 26.3095 27.4329 24.8002 27.71 23.1484C25.308 23.1484 22.9059 23.1484 20.5039 23.1484C20.511 21.4255 20.511 19.7026 20.511 17.9796Z" fill="#4285F4"/>
<path id="Vector_6" fill-rule="evenodd" clip-rule="evenodd" d="M8.70117 26.4092C10.1438 25.2914 11.5865 24.1665 13.0291 23.0416C13.5834 24.672 14.6494 26.1173 16.0566 27.1069C16.9378 27.7263 17.9469 28.1677 18.9987 28.3813C20.0363 28.5949 21.1094 28.5664 22.1541 28.3884C23.1916 28.2033 24.1937 27.826 25.0678 27.2351C26.4678 28.3243 27.8678 29.4136 29.2678 30.5029C27.7541 31.9055 25.8566 32.8595 23.8525 33.3223C21.6353 33.8278 19.2901 33.842 17.087 33.2511C15.3388 32.7883 13.6972 31.9554 12.2829 30.8233C10.7976 29.6415 9.56109 28.1179 8.70117 26.4092Z" fill="#34A853"/>
</g>
</svg>
