<svg width="24" height="24" viewBox="0 0 24 24" fill="none" xmlns="http://www.w3.org/2000/svg">
<g id="mage:facebook-square">
<path id="Vector" d="M17.618 2.25002H6.8594C6.2497 2.24946 5.64593 2.36973 5.08297 2.60386C4.52001 2.83799 4.00902 3.18136 3.57952 3.61411C3.15169 4.04548 2.81387 4.55759 2.58568 5.12067C2.3575 5.68376 2.24351 6.28658 2.25034 6.8941V17.6059C2.24294 18.2135 2.35667 18.8164 2.58488 19.3796C2.8131 19.9428 3.15123 20.4548 3.57952 20.8858C4.0089 21.3185 4.51972 21.6618 5.0825 21.8959C5.64527 22.13 6.24885 22.2504 6.85838 22.2499H11.7433V15.1054H9.87673C9.76118 15.1046 9.65056 15.0584 9.56867 14.9769C9.48677 14.8954 9.44014 14.785 9.43879 14.6695V12.3761C9.43866 12.3172 9.4502 12.2588 9.47275 12.2044C9.4953 12.1499 9.52842 12.1005 9.57019 12.0589C9.61195 12.0173 9.66155 11.9844 9.7161 11.9621C9.77065 11.9398 9.82908 11.9285 9.88801 11.929H11.7433V9.69306C11.6913 9.16463 11.7558 8.63122 11.9323 8.13043C12.1088 7.62963 12.393 7.17365 12.7648 6.79461C13.137 6.41386 13.5878 6.11888 14.0857 5.93023C14.5837 5.74157 15.1167 5.66379 15.6478 5.70231H17.5493C17.6074 5.70271 17.665 5.71462 17.7185 5.73735C17.7721 5.76007 17.8206 5.79318 17.8613 5.83474C17.902 5.87631 17.9341 5.92552 17.9557 5.97954C17.9773 6.03355 17.988 6.09131 17.9872 6.14949V8.08794C17.9872 8.14531 17.9759 8.20211 17.9538 8.25507C17.9318 8.30804 17.8995 8.35611 17.8587 8.39653C17.818 8.43696 17.7697 8.46892 17.7166 8.4906C17.6635 8.51227 17.6066 8.52322 17.5493 8.52281H16.3975C15.1299 8.52281 14.8878 9.11973 14.8878 9.9905V11.9177H17.6529C17.7152 11.9174 17.7769 11.9303 17.8338 11.9557C17.8907 11.9811 17.9416 12.0183 17.983 12.0649C18.0245 12.1114 18.0555 12.1663 18.0741 12.2258C18.0927 12.2853 18.0984 12.3481 18.0908 12.41L17.8139 14.7043C17.8026 14.8122 17.7515 14.912 17.6705 14.9841C17.5894 15.0562 17.4844 15.0954 17.3759 15.0941H14.8991V22.2387H17.6416C18.2511 22.2391 18.8547 22.1187 19.4174 21.8846C19.9802 21.6505 20.491 21.3072 20.9204 20.8746C21.3484 20.4431 21.6863 19.9308 21.9145 19.3675C22.1426 18.8043 22.2566 18.2012 22.2496 17.5935V6.8941C22.2576 6.28447 22.1434 5.67941 21.9137 5.11465C21.684 4.54989 21.3435 4.03688 20.9122 3.60591C20.4803 3.17291 19.9667 2.83007 19.4012 2.5973C18.8357 2.36454 18.2295 2.24649 17.618 2.25002Z" fill="white"/>
</g>
</svg>
