<svg width="20" height="20" viewBox="0 0 20 20" fill="none" xmlns="http://www.w3.org/2000/svg">
<g id="hugeicons:line">
<rect width="20" height="20" rx="5" fill="white"/>
<g id="Group">
<path id="Vector" d="M3.33398 8.99998C3.33398 12.1293 6.31865 14.6666 10.0007 14.6666C10.4584 14.6662 10.9029 14.6284 11.334 14.5533V16.6666C12.4473 15.5766 14.334 13.6666 15.5047 12.198C16.238 11.288 16.6673 10.1866 16.6673 8.99998C16.6673 5.87065 13.6827 3.33331 10.0007 3.33331C6.31865 3.33331 3.33398 5.87065 3.33398 8.99998Z" stroke="#17161B" stroke-width="1.2" stroke-linecap="round" stroke-linejoin="round"/>
<path id="Vector_2" d="M6 7.66663V10.3333H6.66667M8 7.66663V10.3333M9.4 10.3333V7.66663L11 10.3333V7.66663M13.6667 7.66663H12.4V8.99996M12.4 8.99996V10.3333H13.6667M12.4 8.99996H13.36" stroke="#17161B" stroke-width="1.2" stroke-linecap="round" stroke-linejoin="round"/>
</g>
</g>
</svg>
